<svg version="1.1" xmlns="http://www.w3.org/2000/svg" style="display: block;" viewBox="300 450 1470 460" preserveAspectRatio="xMidYMid meet">
<path transform="translate(0,0)" fill="#B7ACE8" d="M 781.954 652.414 C 806.628 613.687 864.956 598.899 896.134 640.148 C 900.003 645.266 902.306 652.297 904.475 658.387 C 906.696 653.848 908.562 650.53 911.393 646.279 C 936.691 608.337 1008.12 602.25 1026.35 650.143 C 1033.25 668.269 1032.25 686.954 1032.22 705.971 L 1032.09 752.901 C 1032.08 773.116 1029.45 789.43 1050.5 798.121 C 1028 798.418 1005.49 798.362 982.992 797.954 C 988.432 795.28 993.401 792.691 996.118 786.928 C 1002.58 773.224 1000.68 690.918 998.502 671.123 C 997.805 664.784 996.356 658.291 994.061 652.335 C 990.342 642.683 983.7 633.914 973.992 629.737 C 962.979 624.999 950.166 625.396 939.135 629.833 C 926.1 635.077 914.622 645.973 909.317 659.058 C 907.897 662.56 906.837 666.414 906.582 670.196 C 905.539 685.665 907.101 702.071 907.167 717.64 C 907.241 735.189 905.821 753.396 907.241 770.853 C 907.671 776.132 908.54 782.199 910.813 787.04 C 913.798 793.395 919.313 795.811 925.467 798.139 C 902.955 798.59 879.741 798.243 857.174 798.162 C 863.126 795.121 867.974 792.803 871.014 786.377 C 877.957 771.7 875.626 691 873.64 672.074 C 872.956 665.916 871.57 659.857 869.507 654.014 C 852.22 606.128 786.352 626.27 782.023 669.279 C 780.561 683.801 782.506 702.516 782.064 717.542 C 781.564 734.525 782.073 752.095 782.026 769.106 C 782.815 784.661 785.408 792.24 799.914 798.12 C 777.433 798.364 754.95 798.335 732.469 798.034 C 737.981 795.3 742.918 792.374 745.805 786.675 C 747.998 782.345 748.505 776.648 748.894 771.89 C 750.359 753.947 751.571 656.323 746.7 644.062 C 743.884 636.973 737.81 634.55 731.24 632.021 C 744.128 628.567 754.493 625.578 767.212 621.242 L 781.984 615.76 L 782.01 631.756 L 781.954 652.414 z"/>
<path transform="translate(0,0)" fill="#B7ACE8" d="M 1627.39 616.401 C 1644.07 614.581 1667.82 619.569 1681.23 629.587 C 1707.77 649.409 1706.42 676.382 1706.29 705.36 L 1706.06 745.564 C 1706 753.196 1705.28 762.454 1706.74 769.851 C 1710.17 787.329 1718.44 788.176 1733.44 784.97 C 1709.56 807.978 1681.26 805.364 1673.76 770.094 C 1658.51 791.492 1639.65 801.025 1613.01 800.383 C 1594.49 799.936 1580.01 794.44 1567.08 780.941 C 1554.77 764.363 1553.97 742.386 1566.22 725.657 C 1589.16 694.325 1638.44 691.155 1673.94 685.096 C 1674.01 676.632 1674.36 667.43 1673.41 659.123 C 1670.44 633.002 1651.66 618.02 1625.6 621.823 C 1598.81 625.731 1582.67 641.158 1566.81 661.283 C 1575.95 628.657 1594.66 619.394 1627.39 616.401 z"/>
<path transform="translate(0,0)" fill="#15121C" d="M 1670.74 690.286 L 1672.83 690.386 C 1674.99 694.056 1673.93 752.203 1673.9 760.97 C 1672.56 763.353 1671.06 765.992 1669.54 768.244 C 1662.03 779.122 1650.55 786.609 1637.56 789.084 C 1624.08 791.577 1613.85 788.791 1602.83 781.14 C 1586.06 765.573 1585.32 737.027 1598.06 718.914 C 1613.21 697.365 1646.61 694.472 1670.74 690.286 z"/>
<path transform="translate(0,0)" fill="#B7ACE8" d="M 1150.5 617.325 C 1185.44 611.242 1224.9 635.404 1233.71 669.64 C 1236.36 679.918 1237.23 686.484 1237.2 696.878 L 1101.04 696.944 C 1101.07 715.362 1103.33 732.653 1112.74 748.986 C 1121.24 763.926 1135.42 774.797 1152.05 779.131 C 1173.64 784.839 1193.92 780.818 1212.94 769.845 C 1221.13 764.737 1228.9 756.465 1235.82 749.62 C 1199.47 829.236 1079.88 811.102 1068.46 722.765 C 1065.11 697.992 1071.76 672.905 1086.93 653.036 C 1102.89 632.437 1124.76 620.543 1150.5 617.325 z"/>
<path transform="translate(0,0)" fill="#15121C" d="M 1157.81 621.39 C 1159.88 621.46 1161.96 621.595 1164.02 621.797 C 1174.8 622.888 1184.67 628.301 1191.39 636.798 C 1203.57 651.988 1205.05 673.453 1202.85 692.055 L 1148.5 692.044 L 1101.13 691.967 C 1104.47 654.817 1116.67 625.132 1157.81 621.39 z"/>
<path transform="translate(0,0)" fill="#B7ACE8" d="M 344.038 525.461 C 371.288 525.596 398.538 525.548 425.787 525.316 C 410.325 530.571 402.771 535.461 401.758 552.858 C 400.212 579.418 400.926 607.102 400.935 633.745 L 400.951 796.957 C 443.202 800.076 459.783 811.595 498.667 824.177 C 550.711 841.017 590.471 840.979 638.963 816.148 C 636.477 819.374 633.618 822.574 630.953 825.676 C 590.344 864.653 527.204 856.978 480.494 835.06 C 459.895 825.395 438.641 812.117 417.155 805.597 C 394.507 798.724 365.868 800.4 342.031 800.497 C 356.549 795.595 363.498 790.895 365.176 774.51 C 366.612 760.488 366.102 746.522 366.114 732.439 L 366.141 665.373 L 366.118 594.939 C 366.109 580.358 366.461 565.792 365.29 551.316 C 364.404 540.375 360.98 534.602 351.32 529.356 C 348.855 528.018 345.822 527.554 344.038 525.461 z"/>
<path transform="translate(0,0)" fill="#B7ACE8" d="M 1308.93 650.364 C 1318.54 638.116 1326.99 629.318 1341.61 622.792 C 1373.58 608.53 1415.77 616.021 1428.03 652.449 C 1434.14 670.602 1433.21 686.136 1433.2 704.824 L 1433.1 750.662 C 1433.05 769.577 1430.59 790.255 1451.47 798.163 L 1383.8 798.164 C 1389.38 795.499 1394.5 792.608 1397.39 786.824 C 1403.43 774.727 1401.87 694.388 1400.25 677.017 C 1399.46 668.575 1397.99 660.497 1395.41 652.395 C 1391.42 643.122 1384.9 634.401 1375.48 630.167 C 1356.22 618.932 1318.28 635.074 1311.34 656.014 C 1304.99 675.202 1310.81 717.617 1308.8 739.522 C 1308.97 750.08 1308.06 760.91 1308.9 771.42 C 1310.14 786.988 1312.83 792.275 1326.61 798.227 L 1258.79 798.239 C 1265.47 794.841 1270.65 791.863 1273.56 784.461 C 1277.88 773.486 1277.92 653.003 1273.21 642.994 C 1270.22 636.623 1264.45 634.388 1258.33 632.014 C 1277.3 626.895 1289.37 623.292 1307.57 616.065 C 1309.64 618.326 1308.91 645.328 1308.93 650.364 z"/>
<path transform="translate(0,0)" fill="#B7ACE8" d="M 568.371 616.146 C 568.838 616.593 569.506 616.897 569.772 617.486 C 571.374 621.024 570.059 632.623 570.03 636.826 C 569.829 665.747 566.394 734.739 574.716 760.037 C 578.242 770.753 584.652 780.144 595.001 785.189 C 606.105 790.601 619.382 790.518 630.918 786.501 C 642.475 782.477 652.855 774.543 658.181 763.344 C 662.291 754.703 661.551 649.625 657.803 640.492 C 654.86 633.321 648.108 630.757 641.437 628.251 C 657.77 625.762 676.421 620.362 692.499 615.893 C 693.396 642.549 692.647 674.707 692.639 701.75 C 692.554 721.595 692.169 741.582 692.659 761.408 C 693.081 778.473 697.112 783.242 712.888 787.766 C 697.295 790.384 676.222 796.137 660.409 799.988 L 660.161 770 C 638.348 797.339 609.478 807.761 574.741 795.806 C 538.522 783.342 537.118 744.125 537.263 711.247 L 537.467 671.878 C 537.518 661.097 538.318 648.723 533.82 638.795 C 530.953 632.467 524.183 630.493 518.095 628.221 C 535.649 625.436 551.342 621.179 568.371 616.146 z"/>
<path transform="translate(0,0)" fill="#B7ACE8" d="M 1519.07 616.18 C 1523 621.182 1517.39 760.296 1521.58 779.208 C 1524.29 791.477 1526.8 793.328 1538.54 798.199 L 1472.33 798.215 L 1471.66 797.635 C 1476.59 795.112 1482.52 791.634 1484.46 786.242 C 1486.46 780.685 1487.27 774.253 1487.64 768.384 C 1488.73 751.045 1489.78 652.495 1484.61 642.485 C 1481.36 636.194 1475.83 634.162 1469.58 631.981 C 1488.35 627.097 1500.94 623.099 1519.07 616.18 z"/>
<defs><radialGradient id="lumen" cx="50%" cy="50%" r="50%"><stop offset="0%" stop-color="#B7ACE8" stop-opacity="1"/><stop offset="28%" stop-color="#D4CCF2" stop-opacity="0.8"/><stop offset="65%" stop-color="#B7ACE8" stop-opacity="0.3"/><stop offset="100%" stop-color="#B7ACE8" stop-opacity="0"/></radialGradient></defs><circle cx="1504" cy="556" r="92" fill="url(#lumen)"/><circle cx="1504" cy="556" r="21" fill="#B7ACE8"/><circle cx="1497" cy="549" r="7" fill="#B7ACE8" opacity="0.95"/></svg>
